HIERARCHY
ROOT Hips
{
	OFFSET 0.000000 8.830580 0.000000
	CHANNELS 6 Xposition Yposition Zposition Zrotation Yrotation Xrotation 
	JOINT Spine
	{
		OFFSET 0.000000 0.010000 0.000000
		CHANNELS 3 Zrotation Yrotation Xrotation
		JOINT Spine1
		{
			OFFSET 0.000000 2.459130 0.000000
			CHANNELS 3 Zrotation Yrotation Xrotation
			JOINT Neck
			{
				OFFSET 0.000000 2.484630 0.000000
				CHANNELS 3 Zrotation Yrotation Xrotation
				JOINT Head_virtual
				{
					OFFSET 0.000000 0.000000 0.000000
					CHANNELS 3 Zrotation Yrotation Xrotation
					JOINT Head
					{
						OFFSET 0.000000 0.927525 0.000000
						CHANNELS 3 Zrotation Yrotation Xrotation
						End Site
						{
							OFFSET 0.000000 0.000000 0.000000
						}
					}
				}
				JOINT LeftUpArm_virtual
				{
					OFFSET 0.000000 0.000000 0.000000
					CHANNELS 3 Zrotation Yrotation Xrotation
					JOINT LeftUpArm
					{
						OFFSET 1.248820 0.000000 0.000000
						CHANNELS 3 Zrotation Yrotation Xrotation
						JOINT LeftForeArm
						{
							OFFSET 2.597580 0.000000 0.000000
							CHANNELS 3 Zrotation Yrotation Xrotation
							JOINT LeftHand
							{
								OFFSET 2.455420 0.000000 0.000000
								CHANNELS 3 Zrotation Yrotation Xrotation
								End Site
								{
									OFFSET 0.000000 0.000000 0.000000
								}
							}
						}
					}
				}
				JOINT RightUpArm_virtual
				{
					OFFSET -0.000000 -0.000000 -0.000000
					CHANNELS 3 Zrotation Yrotation Xrotation
					JOINT RightUpArm
					{
						OFFSET -1.248820 -0.000000 -0.000000
						CHANNELS 3 Zrotation Yrotation Xrotation
						JOINT RightForeArm
						{
							OFFSET -2.597580 -0.000000 -0.000000
							CHANNELS 3 Zrotation Yrotation Xrotation
							JOINT RightHand
							{
								OFFSET -2.455420 -0.000000 -0.000000
								CHANNELS 3 Zrotation Yrotation Xrotation
								End Site
								{
									OFFSET 0.000000 0.000000 0.000000
								}
							}
						}
					}
				}
			}
		}
	}
	JOINT LeftUpLeg
	{
		OFFSET 1.271939 0.000000 0.000000
		CHANNELS 3 Zrotation Yrotation Xrotation
		JOINT LeftLowLeg
		{
			OFFSET 0.000000 -4.342910 0.000000
			CHANNELS 3 Zrotation Yrotation Xrotation
			JOINT LeftFoot
			{
				OFFSET 0.000000 -4.487670 0.000000
				CHANNELS 3 Zrotation Yrotation Xrotation
				JOINT LeftToeBase
				{
					OFFSET 0.000000 0.000000 1.515070
					CHANNELS 3 Zrotation Yrotation Xrotation
					End Site
					{
						OFFSET 0.000000 0.000000 0.000000
					}
				}
			}
		}
	}
	JOINT RightUpLeg
	{
		OFFSET -1.271939 0.000000 0.000000
		CHANNELS 3 Zrotation Yrotation Xrotation
		JOINT RightLowLeg
		{
			OFFSET 0.000000 -4.342910 0.000000
			CHANNELS 3 Zrotation Yrotation Xrotation
			JOINT RightFoot
			{
				OFFSET 0.000000 -4.487670 0.000000
				CHANNELS 3 Zrotation Yrotation Xrotation
				JOINT RightToeBase
				{
					OFFSET 0.000000 0.000000 1.515070
					CHANNELS 3 Zrotation Yrotation Xrotation
					End Site
					{
						OFFSET 0.000000 0.000000 0.000000
					}
				}
			}
		}
	}
}
MOTION
Frames: 10
Frame Time: 0.041667
-17.992173 9.169066 43.929018 -174.753249 3.446801 -170.061932 2.818641 -0.927795 -11.125777 4.629437 -0.627020 -9.067658 0.000000 0.000000 0.000000 -7.438238 -4.695138 25.779161 14.441493 8.439754 -86.354217 -22.857599 8.991740 -13.775300 13.081700 -14.455100 -22.704700 0.000000 -5.201170 0.000000 20.869400 16.358299 36.195999 18.436199 -2.928150 -7.450010 -7.826780 3.590050 -46.432400 0.000000 15.817000 0.000000 -20.382601 -16.741899 53.938202 2.634232 -4.695197 -6.997218 0.000000 0.000000 4.052880 -8.684069 16.049753 2.960907 0.000000 0.000000 -37.504499 8.420873 3.081399 -6.800639 0.000000 0.000000 6.918150 11.200402 -17.414491 5.189155 0.000000 0.000000 -33.694500 
-17.992893 9.169171 43.927682 -174.761169 3.391814 -170.072167 2.827052 -0.936703 -11.173412 4.621309 -0.640392 -9.022098 0.000000 0.000000 0.000000 -7.452624 -4.670288 25.827060 14.435276 8.451731 -86.377125 -22.874500 9.011920 -13.798500 13.084600 -14.484400 -22.756300 0.000000 -5.203010 0.000000 20.913500 16.295000 36.326401 18.439199 -2.944630 -7.491800 -7.900950 3.537620 -46.408600 0.000000 15.788400 0.000000 -20.478300 -16.743799 54.005901 2.623473 -4.678060 -6.971690 0.000000 0.000000 4.017670 -8.679799 15.982619 2.997882 0.000000 0.000000 -37.537800 8.423814 2.947862 -6.792220 0.000000 0.000000 6.933550 11.183257 -17.345537 5.192540 0.000000 0.000000 -33.701000 
-17.993183 9.169055 43.928303 -174.764042 3.287378 -170.078720 2.839805 -0.970087 -11.180223 4.600414 -0.676673 -9.021674 0.000000 0.000000 0.000000 -7.442749 -4.663647 25.842276 14.428923 8.469343 -86.367868 -22.889700 9.018780 -13.794400 13.126700 -14.494400 -22.732500 0.000000 -5.208050 0.000000 20.898199 16.280600 36.263199 18.459000 -2.928820 -7.486420 -7.980840 3.432120 -46.464401 0.000000 15.805100 0.000000 -20.523701 -16.834900 54.031101 2.641444 -4.821754 -6.995972 0.000000 0.000000 4.032240 -8.662328 16.029956 2.998385 0.000000 0.000000 -37.527399 8.429234 2.932635 -6.776426 0.000000 0.000000 6.905790 11.205473 -17.412884 5.178100 0.000000 0.000000 -33.736700 
-17.993751 9.169072 43.928370 -174.768861 3.224711 -170.104146 2.850188 -0.985826 -11.179276 4.587553 -0.695404 -9.014029 0.000000 0.000000 0.000000 -7.440371 -4.672746 25.861809 14.398035 8.468999 -86.355327 -22.895700 9.032250 -13.810000 13.134200 -14.510200 -22.744400 0.000000 -5.209650 0.000000 20.911301 16.257401 36.192101 18.454599 -2.944830 -7.523530 -8.014990 3.400920 -46.511799 0.000000 15.839800 0.000000 -20.647400 -16.952400 54.035400 2.641945 -4.877836 -6.980959 0.000000 0.000000 4.028730 -8.663660 16.026065 3.005298 0.000000 0.000000 -37.513399 8.430125 2.893874 -6.758649 0.000000 0.000000 6.917580 11.235230 -17.426530 5.159091 0.000000 0.000000 -33.734301 
-17.994307 9.169024 43.928736 -174.771576 3.140087 -170.133296 2.866101 -1.005935 -11.168843 4.556622 -0.719799 -9.004667 0.000000 0.000000 0.000000 -7.426693 -4.677717 25.859776 14.382437 8.482524 -86.345168 -22.899000 9.036270 -13.796800 13.158900 -14.524100 -22.696899 0.000000 -5.218450 0.000000 20.899000 16.297701 36.080002 18.462900 -2.990280 -7.596570 -8.073140 3.359780 -46.384800 0.000000 15.831800 0.000000 -20.508900 -16.938900 53.784599 2.648548 -4.947151 -6.977733 0.000000 0.000000 4.043770 -8.661673 16.007884 3.012620 0.000000 0.000000 -37.521900 8.439439 2.810404 -6.741646 0.000000 0.000000 6.932390 11.232618 -17.429577 5.145337 0.000000 0.000000 -33.705200 
-17.994902 9.168972 43.929321 -174.781293 3.075815 -170.159890 2.872849 -1.019515 -11.151388 4.537722 -0.734543 -9.010286 0.000000 0.000000 0.000000 -7.416710 -4.705112 25.869664 14.344101 8.485640 -86.345573 -22.882299 9.025370 -13.804800 13.142300 -14.507000 -22.638000 0.000000 -5.243060 0.000000 20.849701 16.311501 36.099098 18.457199 -3.030680 -7.586210 -8.115870 3.379440 -46.480598 0.000000 15.791700 0.000000 -20.662800 -16.919500 53.915798 2.645053 -5.007172 -6.969127 0.000000 0.000000 4.046720 -8.656060 16.006088 3.026742 0.000000 0.000000 -37.530300 8.421882 2.960837 -6.706474 0.000000 0.000000 6.910030 11.293763 -17.604020 5.090475 0.000000 0.000000 -33.695900 
-17.995574 9.169378 43.929312 -174.804595 3.034482 -170.182346 2.848151 -1.022686 -11.164701 4.550683 -0.732594 -8.973690 0.000000 0.000000 0.000000 -7.400661 -4.776386 25.893053 14.254313 8.495919 -86.395640 -22.908800 9.023180 -13.799300 13.144400 -14.527100 -22.618000 0.000000 -5.236940 0.000000 20.867701 16.245501 36.120201 18.459700 -3.075220 -7.648420 -8.183410 3.379200 -46.475101 0.000000 15.820300 0.000000 -20.702000 -16.951200 53.956699 2.663815 -5.474641 -6.889126 0.000000 0.000000 3.915740 -8.656244 16.409891 3.049011 0.000000 0.000000 -37.474199 8.399693 2.953586 -6.686953 0.000000 0.000000 6.910530 11.323173 -17.633575 5.073047 0.000000 0.000000 -33.695000 
-17.996072 9.169414 43.929550 -174.809276 2.992827 -170.208612 2.846618 -1.035256 -11.175147 4.545479 -0.746852 -8.926864 0.000000 0.000000 0.000000 -7.390649 -4.793740 25.859845 14.200676 8.494198 -86.383339 -22.929899 9.048690 -13.806200 13.165300 -14.561300 -22.694799 0.000000 -5.224750 0.000000 20.885700 16.179399 36.102699 18.460400 -3.088190 -7.708030 -8.218820 3.359540 -46.530300 0.000000 15.872500 0.000000 -20.661100 -16.889500 54.251099 2.656240 -5.466222 -6.875134 0.000000 0.000000 3.920090 -8.661234 16.362541 3.063384 0.000000 0.000000 -37.494499 8.399190 2.942694 -6.663076 0.000000 0.000000 6.911270 11.324603 -17.666674 5.061174 0.000000 0.000000 -33.687500 
-17.996851 9.168933 43.930475 -174.815035 2.926130 -170.230905 2.868059 -1.057708 -11.179130 4.489884 -0.776303 -8.885022 0.000000 0.000000 0.000000 -7.358749 -4.797802 25.807501 14.146845 8.518588 -86.345698 -22.926500 9.070480 -13.794600 13.201200 -14.589200 -22.774300 0.000000 -5.226430 0.000000 20.886000 16.221701 36.032501 18.470501 -3.092410 -7.697220 -8.247800 3.346100 -46.703899 0.000000 15.885000 0.000000 -20.584700 -16.922100 54.143101 2.621928 -5.164518 -6.926537 0.000000 0.000000 4.027040 -8.636719 16.017170 3.076542 0.000000 0.000000 -37.526100 8.424556 2.536066 -6.705448 0.000000 0.000000 7.018990 11.283831 -17.367157 5.071989 0.000000 0.000000 -33.705299 
-17.997287 9.168947 43.931484 -174.818010 2.879350 -170.257939 2.889194 -1.061198 -11.169040 4.431903 -0.785136 -8.877750 0.000000 0.000000 0.000000 -7.338735 -4.808837 25.833580 14.129630 8.545430 -86.344302 -22.914101 9.044400 -13.776500 13.226900 -14.572000 -22.744600 0.000000 -5.236660 0.000000 20.877100 16.228399 36.076801 18.486700 -3.100800 -7.712480 -8.304630 3.318610 -46.534199 0.000000 15.840500 0.000000 -20.589701 -16.921101 53.895599 2.622483 -5.198596 -6.918838 0.000000 0.000000 4.034740 -8.622855 16.008709 3.088482 0.000000 0.000000 -37.528000 8.425506 2.519197 -6.687082 0.000000 0.000000 7.022630 11.283197 -17.398469 5.063634 0.000000 0.000000 -33.701700 
